<svg width="45" height="40" viewBox="0 0 45 40" fill="none" xmlns="http://www.w3.org/2000/svg">
<path d="M39.5303 21.0279L22.0303 38.3599L4.53032 21.0279M4.53032 21.0279C3.37604 19.9047 2.46682 18.5546 1.85994 17.0628C1.25305 15.5709 0.961635 13.9695 1.00405 12.3595C1.04646 10.7494 1.42177 9.1656 2.10636 7.70774C2.79095 6.24987 3.76997 4.94954 4.98179 3.88864C6.19361 2.82773 7.61197 2.02922 9.14755 1.54341C10.6831 1.05759 12.3027 0.894979 13.9042 1.06582C15.5057 1.23666 17.0545 1.73725 18.453 2.53607C19.8516 3.33488 21.0696 4.41462 22.0303 5.70728C22.9952 4.424 24.2146 3.3537 25.6122 2.56336C27.0098 1.77302 28.5555 1.27967 30.1525 1.11416C31.7495 0.948662 33.3635 1.11458 34.8935 1.60153C36.4234 2.08848 37.8364 2.88599 39.0439 3.94413C40.2515 5.00228 41.2277 6.29828 41.9113 7.75103C42.595 9.20378 42.9714 10.782 43.017 12.3869C43.0627 13.9919 42.7766 15.5889 42.1766 17.0782C41.5767 18.5675 40.6758 19.9169 39.5303 21.0419" fill="black"/>
<path d="M39.5303 21.0279L22.0303 38.3599L4.53032 21.0279M4.53032 21.0279C3.37604 19.9047 2.46682 18.5546 1.85994 17.0628C1.25305 15.5709 0.961635 13.9695 1.00405 12.3595C1.04646 10.7494 1.42177 9.1656 2.10636 7.70774C2.79095 6.24987 3.76997 4.94954 4.98179 3.88864C6.19361 2.82773 7.61197 2.02922 9.14755 1.54341C10.6831 1.05759 12.3027 0.894979 13.9042 1.06582C15.5057 1.23666 17.0545 1.73725 18.453 2.53607C19.8516 3.33488 21.0696 4.41462 22.0303 5.70728C22.9952 4.424 24.2146 3.3537 25.6122 2.56336C27.0098 1.77302 28.5555 1.27967 30.1525 1.11416C31.7495 0.948662 33.3635 1.11458 34.8935 1.60153C36.4234 2.08848 37.8364 2.88599 39.0439 3.94413C40.2515 5.00228 41.2277 6.29828 41.9113 7.75103C42.595 9.20378 42.9714 10.782 43.017 12.3869C43.0627 13.9919 42.7766 15.5889 42.1766 17.0782C41.5767 18.5675 40.6758 19.9169 39.5303 21.0419" stroke="black" stroke-width="2" stroke-linecap="round" stroke-linejoin="round"/>
</svg>
